%TF.GenerationSoftware,KiCad,Pcbnew,10.0.3*%
%TF.CreationDate,2026-06-21T22:23:48-05:00*%
%TF.ProjectId,SaxCard V2,53617843-6172-4642-9056-322e6b696361,rev?*%
%TF.SameCoordinates,Original*%
%TF.FileFunction,Copper,L2,Bot*%
%TF.FilePolarity,Positive*%
%FSLAX46Y46*%
G04 Gerber Fmt 4.6, Leading zero omitted, Abs format (unit mm)*
G04 Created by KiCad (PCBNEW 10.0.3) date 2026-06-21 22:23:48*
%MOMM*%
%LPD*%
G01*
G04 APERTURE LIST*
G04 Aperture macros list*
%AMRoundRect*
0 Rectangle with rounded corners*
0 $1 Rounding radius*
0 $2 $3 $4 $5 $6 $7 $8 $9 X,Y pos of 4 corners*
0 Add a 4 corners polygon primitive as box body*
4,1,4,$2,$3,$4,$5,$6,$7,$8,$9,$2,$3,0*
0 Add four circle primitives for the rounded corners*
1,1,$1+$1,$2,$3*
1,1,$1+$1,$4,$5*
1,1,$1+$1,$6,$7*
1,1,$1+$1,$8,$9*
0 Add four rect primitives between the rounded corners*
20,1,$1+$1,$2,$3,$4,$5,0*
20,1,$1+$1,$4,$5,$6,$7,0*
20,1,$1+$1,$6,$7,$8,$9,0*
20,1,$1+$1,$8,$9,$2,$3,0*%
%AMRotRect*
0 Rectangle, with rotation*
0 The origin of the aperture is its center*
0 $1 length*
0 $2 width*
0 $3 Rotation angle, in degrees counterclockwise*
0 Add horizontal line*
21,1,$1,$2,0,0,$3*%
G04 Aperture macros list end*
%ADD10C,0.400000*%
%TA.AperFunction,EtchedComponent*%
%ADD11C,0.300000*%
%TD*%
%TA.AperFunction,ComponentPad*%
%ADD12C,0.700000*%
%TD*%
%TA.AperFunction,ComponentPad*%
%ADD13C,4.400000*%
%TD*%
%TA.AperFunction,SMDPad,CuDef*%
%ADD14RoundRect,0.250000X-0.850000X-0.550000X0.850000X-0.550000X0.850000X0.550000X-0.850000X0.550000X0*%
%TD*%
%TA.AperFunction,SMDPad,CuDef*%
%ADD15RoundRect,0.165000X0.165000X0.475000X-0.165000X0.475000X-0.165000X-0.475000X0.165000X-0.475000X0*%
%TD*%
%TA.AperFunction,SMDPad,CuDef*%
%ADD16R,0.750000X0.300000*%
%TD*%
%TA.AperFunction,ComponentPad*%
%ADD17C,0.808000*%
%TD*%
%TA.AperFunction,SMDPad,CuDef*%
%ADD18R,0.450000X0.270000*%
%TD*%
%TA.AperFunction,SMDPad,CuDef*%
%ADD19R,0.370000X0.450000*%
%TD*%
%TA.AperFunction,SMDPad,CuDef*%
%ADD20R,0.270000X0.450000*%
%TD*%
%TA.AperFunction,SMDPad,CuDef*%
%ADD21R,1.000000X1.100000*%
%TD*%
%TA.AperFunction,SMDPad,CuDef*%
%ADD22R,1.100000X1.000000*%
%TD*%
%TA.AperFunction,SMDPad,CuDef*%
%ADD23RotRect,1.200000X1.200000X200.000000*%
%TD*%
%TA.AperFunction,ViaPad*%
%ADD24C,0.706400*%
%TD*%
%TA.AperFunction,Conductor*%
%ADD25C,0.200000*%
%TD*%
G04 APERTURE END LIST*
D10*
G36*
X271603942Y-129148676D02*
G01*
X271603942Y-129006429D01*
X270718867Y-129006429D01*
X269941747Y-131065519D01*
X269221304Y-129006429D01*
X268318290Y-129006429D01*
X268318290Y-129148676D01*
X268592941Y-129148676D01*
X268656479Y-129158423D01*
X268698007Y-129184438D01*
X268723718Y-129227047D01*
X268733441Y-129292987D01*
X268733441Y-131372874D01*
X268723306Y-131424785D01*
X268694478Y-131461319D01*
X268642920Y-131485936D01*
X268557538Y-131495752D01*
X268318290Y-131495752D01*
X268318290Y-131638000D01*
X269527866Y-131638000D01*
X269527866Y-131495752D01*
X269267344Y-131495752D01*
X269205964Y-131487228D01*
X269158912Y-131463366D01*
X269127101Y-131424929D01*
X269116207Y-131372874D01*
X269111126Y-129140103D01*
X269976833Y-131638000D01*
X270104633Y-131638000D01*
X271029397Y-129182968D01*
X271029397Y-131060756D01*
X271015927Y-131222623D01*
X270981448Y-131331176D01*
X270931603Y-131401450D01*
X270859890Y-131449926D01*
X270753583Y-131483006D01*
X270600116Y-131495752D01*
X270600116Y-131638000D01*
X271603942Y-131638000D01*
X271603942Y-131495752D01*
X271452570Y-131483368D01*
X271348683Y-131451380D01*
X271279441Y-131404784D01*
X271231199Y-131337093D01*
X271198035Y-131233811D01*
X271185139Y-131081236D01*
X271185139Y-129268062D01*
X271201145Y-129202975D01*
X271247115Y-129164089D01*
X271336118Y-129148676D01*
X271603942Y-129148676D01*
G37*
G36*
X268188902Y-130093127D02*
G01*
X268188902Y-129961517D01*
X267383841Y-129961517D01*
X267383841Y-130093603D01*
X267502433Y-130093603D01*
X267585279Y-130106135D01*
X267625888Y-130136406D01*
X267639282Y-130184254D01*
X267628963Y-130239184D01*
X267169200Y-131225705D01*
X266829300Y-130409372D01*
X266803061Y-130326474D01*
X266794214Y-130237596D01*
X266807409Y-130179597D01*
X266846735Y-130136640D01*
X266921260Y-130106133D01*
X267049814Y-130093603D01*
X267049814Y-129961517D01*
X266351121Y-129961517D01*
X266351121Y-130093603D01*
X266440739Y-130104953D01*
X266513346Y-130137171D01*
X266572987Y-130190407D01*
X266621327Y-130268554D01*
X267235244Y-131702296D01*
X267339739Y-131917784D01*
X267438339Y-132076704D01*
X267531168Y-132189842D01*
X267641581Y-132279580D01*
X267760804Y-132331692D01*
X267892819Y-132349235D01*
X267981125Y-132340267D01*
X268052633Y-132315153D01*
X268110952Y-132274936D01*
X268156503Y-132221164D01*
X268183263Y-132160926D01*
X268192395Y-132091888D01*
X268179831Y-132011584D01*
X268144926Y-131953293D01*
X268090286Y-131915423D01*
X268016967Y-131902173D01*
X267949958Y-131913558D01*
X267899963Y-131945831D01*
X267867168Y-131995063D01*
X267855828Y-132058549D01*
X267866465Y-132146342D01*
X267854563Y-132175744D01*
X267814710Y-132186667D01*
X267731304Y-132171076D01*
X267648686Y-132121647D01*
X267563396Y-132028861D01*
X267487161Y-131904314D01*
X267327006Y-131594817D01*
X267957751Y-130243312D01*
X267998492Y-130175529D01*
X268043003Y-130135356D01*
X268099993Y-130110541D01*
X268188902Y-130093127D01*
G37*
G36*
X264795135Y-131000110D02*
G01*
X264668923Y-131000110D01*
X264589211Y-131189176D01*
X264508655Y-131324768D01*
X264428087Y-131418120D01*
X264329626Y-131488007D01*
X264210744Y-131531234D01*
X264065802Y-131546555D01*
X263948870Y-131536431D01*
X263855198Y-131508403D01*
X263780038Y-131464477D01*
X263720027Y-131403442D01*
X263685211Y-131334099D01*
X263673352Y-131253329D01*
X263688716Y-131162243D01*
X263732604Y-131092648D01*
X263808589Y-131039189D01*
X263928318Y-131002651D01*
X264386175Y-130903268D01*
X264497715Y-130864645D01*
X264589340Y-130809694D01*
X264664160Y-130738319D01*
X264721217Y-130652419D01*
X264754966Y-130559842D01*
X264766400Y-130458111D01*
X264749025Y-130321081D01*
X264697800Y-130198774D01*
X264610500Y-130087094D01*
X264497915Y-130001851D01*
X264362311Y-129949521D01*
X264197095Y-129931035D01*
X264053588Y-129945860D01*
X263921114Y-129989705D01*
X263796707Y-130063598D01*
X263681132Y-129941196D01*
X263599689Y-129941196D01*
X263556507Y-130548921D01*
X263682719Y-130548921D01*
X263742942Y-130391176D01*
X263810556Y-130273932D01*
X263884342Y-130189334D01*
X263974830Y-130126127D01*
X264083363Y-130087089D01*
X264214875Y-130073282D01*
X264324355Y-130083425D01*
X264410878Y-130111421D01*
X264479366Y-130155360D01*
X264533407Y-130215258D01*
X264564688Y-130281245D01*
X264575256Y-130355871D01*
X264559054Y-130416639D01*
X264503916Y-130479158D01*
X264389812Y-130546675D01*
X264186442Y-130618539D01*
X263855606Y-130691644D01*
X263742007Y-130722529D01*
X263646208Y-130774940D01*
X263565080Y-130849608D01*
X263503280Y-130940892D01*
X263466402Y-131041601D01*
X263453790Y-131154741D01*
X263465058Y-131267520D01*
X263497776Y-131367353D01*
X263551882Y-131457009D01*
X263629376Y-131538300D01*
X263753734Y-131620687D01*
X263898551Y-131671144D01*
X264069294Y-131688802D01*
X264203585Y-131679392D01*
X264313940Y-131653240D01*
X264417436Y-131606906D01*
X264530010Y-131531473D01*
X264655905Y-131678642D01*
X264758939Y-131678642D01*
X264795135Y-131000110D01*
G37*
G36*
X263382349Y-129143120D02*
G01*
X263382349Y-129001667D01*
X262736999Y-128965470D01*
X262736999Y-130783088D01*
X262202461Y-130318404D01*
X262150388Y-130261251D01*
X262129750Y-130205210D01*
X262140876Y-130167962D01*
X262177417Y-130137508D01*
X262254222Y-130113896D01*
X262395828Y-130103764D01*
X262395828Y-129961517D01*
X261502021Y-129961517D01*
X261502021Y-130103764D01*
X261664576Y-130120285D01*
X261796657Y-130166624D01*
X261904790Y-130240930D01*
X262284539Y-130575116D01*
X261669987Y-131423200D01*
X261625574Y-131461550D01*
X261562789Y-131486432D01*
X261475191Y-131495752D01*
X261377873Y-131495752D01*
X261377873Y-131638000D01*
X262296446Y-131638000D01*
X262296446Y-131495752D01*
X262199127Y-131495752D01*
X262074343Y-131484004D01*
X262043130Y-131466233D01*
X262033860Y-131440505D01*
X262050371Y-131394147D01*
X262498068Y-130766578D01*
X262736999Y-130977726D01*
X262736999Y-131390814D01*
X262721325Y-131445995D01*
X262673506Y-131481136D01*
X262575383Y-131495752D01*
X262453140Y-131495752D01*
X262453140Y-131638000D01*
X263357583Y-131638000D01*
X263357583Y-131495752D01*
X263210573Y-131495752D01*
X263130449Y-131485623D01*
X263080841Y-131459731D01*
X263052156Y-131420070D01*
X263041814Y-131362078D01*
X263041814Y-129308863D01*
X263055655Y-129239217D01*
X263095227Y-129189919D01*
X263166473Y-129156495D01*
X263285031Y-129143120D01*
X263382349Y-129143120D01*
G37*
G36*
X260803645Y-128975948D02*
G01*
X260725812Y-128991080D01*
X260658223Y-129037070D01*
X260611750Y-129104550D01*
X260596308Y-129184397D01*
X260610909Y-129260923D01*
X260654572Y-129324739D01*
X260719504Y-129367724D01*
X260800153Y-129382368D01*
X260880801Y-129367724D01*
X260945734Y-129324739D01*
X260989397Y-129260923D01*
X261003998Y-129184397D01*
X260989186Y-129107108D01*
X260943987Y-129038816D01*
X260878179Y-128991345D01*
X260803645Y-128975948D01*
G37*
G36*
X261266583Y-130111225D02*
G01*
X261266583Y-129966279D01*
X260596308Y-129937703D01*
X260596308Y-131380177D01*
X260582044Y-131444822D01*
X260542789Y-131481690D01*
X260470095Y-131495752D01*
X260276887Y-131495752D01*
X260276887Y-131638000D01*
X261231022Y-131638000D01*
X261231022Y-131495752D01*
X261052102Y-131495752D01*
X260982755Y-131485690D01*
X260938150Y-131459180D01*
X260911070Y-131416601D01*
X260900964Y-131351759D01*
X260900964Y-130304910D01*
X260915215Y-130219214D01*
X260954023Y-130161846D01*
X261019451Y-130125304D01*
X261123066Y-130111225D01*
X261266583Y-130111225D01*
G37*
G36*
X260179886Y-129001667D02*
G01*
X259513262Y-128965470D01*
X259513262Y-131387003D01*
X259503976Y-131430178D01*
X259475954Y-131465112D01*
X259434380Y-131487713D01*
X259379905Y-131495752D01*
X259200985Y-131495752D01*
X259200985Y-131638000D01*
X260151468Y-131638000D01*
X260151468Y-131495752D01*
X259979692Y-131495752D01*
X259904539Y-131485367D01*
X259856860Y-131458310D01*
X259828410Y-131415584D01*
X259817918Y-131351442D01*
X259817918Y-129326644D01*
X259832338Y-129248060D01*
X259873166Y-129191541D01*
X259936038Y-129156139D01*
X260025732Y-129143120D01*
X260179886Y-129143120D01*
X260179886Y-129001667D01*
G37*
G36*
X259095252Y-129001667D02*
G01*
X258428628Y-128965470D01*
X258428628Y-131387003D01*
X258419343Y-131430178D01*
X258391320Y-131465112D01*
X258349746Y-131487713D01*
X258295271Y-131495752D01*
X258116351Y-131495752D01*
X258116351Y-131638000D01*
X259066835Y-131638000D01*
X259066835Y-131495752D01*
X258895059Y-131495752D01*
X258819905Y-131485367D01*
X258772226Y-131458310D01*
X258743776Y-131415584D01*
X258733284Y-131351442D01*
X258733284Y-129326644D01*
X258747705Y-129248060D01*
X258788532Y-129191541D01*
X258851404Y-129156139D01*
X258941098Y-129143120D01*
X259095252Y-129143120D01*
X259095252Y-129001667D01*
G37*
G36*
X258000299Y-131000110D02*
G01*
X257874087Y-131000110D01*
X257794375Y-131189176D01*
X257713819Y-131324768D01*
X257633251Y-131418120D01*
X257534790Y-131488007D01*
X257415908Y-131531234D01*
X257270966Y-131546555D01*
X257154034Y-131536431D01*
X257060362Y-131508403D01*
X256985202Y-131464477D01*
X256925191Y-131403442D01*
X256890375Y-131334099D01*
X256878516Y-131253329D01*
X256893880Y-131162243D01*
X256937768Y-131092648D01*
X257013753Y-131039189D01*
X257133481Y-131002651D01*
X257591339Y-130903268D01*
X257702879Y-130864645D01*
X257794504Y-130809694D01*
X257869324Y-130738319D01*
X257926381Y-130652419D01*
X257960130Y-130559842D01*
X257971564Y-130458111D01*
X257954189Y-130321081D01*
X257902964Y-130198774D01*
X257815664Y-130087094D01*
X257703079Y-130001851D01*
X257567475Y-129949521D01*
X257402259Y-129931035D01*
X257258752Y-129945860D01*
X257126278Y-129989705D01*
X257001871Y-130063598D01*
X256886296Y-129941196D01*
X256804853Y-129941196D01*
X256761671Y-130548921D01*
X256887883Y-130548921D01*
X256948106Y-130391176D01*
X257015720Y-130273932D01*
X257089506Y-130189334D01*
X257179994Y-130126127D01*
X257288527Y-130087089D01*
X257420039Y-130073282D01*
X257529519Y-130083425D01*
X257616042Y-130111421D01*
X257684530Y-130155360D01*
X257738571Y-130215258D01*
X257769852Y-130281245D01*
X257780420Y-130355871D01*
X257764218Y-130416639D01*
X257709080Y-130479158D01*
X257594976Y-130546675D01*
X257391606Y-130618539D01*
X257060770Y-130691644D01*
X256947171Y-130722529D01*
X256851372Y-130774940D01*
X256770244Y-130849608D01*
X256708444Y-130940892D01*
X256671566Y-131041601D01*
X256658954Y-131154741D01*
X256670222Y-131267520D01*
X256702940Y-131367353D01*
X256757046Y-131457009D01*
X256834540Y-131538300D01*
X256958898Y-131620687D01*
X257103715Y-131671144D01*
X257274458Y-131688802D01*
X257408749Y-131679392D01*
X257519104Y-131653240D01*
X257622600Y-131606906D01*
X257735174Y-131531473D01*
X257861069Y-131678642D01*
X257964103Y-131678642D01*
X258000299Y-131000110D01*
G37*
G36*
X255989790Y-129382368D02*
G01*
X255905818Y-129398312D01*
X255835477Y-129446030D01*
X255788080Y-129517385D01*
X255771815Y-129607645D01*
X255787115Y-129695184D01*
X255831826Y-129765768D01*
X255899680Y-129813196D01*
X255986297Y-129829430D01*
X256073411Y-129813324D01*
X256144261Y-129765768D01*
X256191810Y-129694896D01*
X256207923Y-129607645D01*
X256192901Y-129522776D01*
X256147913Y-129449681D01*
X256079248Y-129399570D01*
X255989790Y-129382368D01*
G37*
G36*
X255986297Y-130713394D02*
G01*
X255899372Y-130729176D01*
X255830238Y-130775309D01*
X255784100Y-130844574D01*
X255768323Y-130931527D01*
X255784282Y-131019414D01*
X255831826Y-131093301D01*
X255902355Y-131143736D01*
X255986297Y-131160456D01*
X256073077Y-131143896D01*
X256142515Y-131095048D01*
X256188638Y-131022877D01*
X256204272Y-130935178D01*
X256188788Y-130850488D01*
X256142515Y-130778802D01*
X256073077Y-130729954D01*
X255986297Y-130713394D01*
G37*
G36*
X265344087Y-108673918D02*
G01*
X265185818Y-108673918D01*
X265128807Y-108909077D01*
X265046597Y-109111875D01*
X264940434Y-109286731D01*
X264810111Y-109437055D01*
X264654458Y-109563893D01*
X264491030Y-109651852D01*
X264317391Y-109704323D01*
X264130139Y-109722087D01*
X263939331Y-109701397D01*
X263779128Y-109642386D01*
X263642875Y-109545865D01*
X263535898Y-109418435D01*
X263473391Y-109277760D01*
X263452182Y-109118685D01*
X263467801Y-108992432D01*
X263513308Y-108882667D01*
X263589935Y-108785293D01*
X263689014Y-108707096D01*
X263816971Y-108642439D01*
X263979930Y-108592769D01*
X264453456Y-108477775D01*
X264705514Y-108400427D01*
X264911292Y-108311063D01*
X265054918Y-108220209D01*
X265150280Y-108128768D01*
X265229743Y-107999839D01*
X265280576Y-107836751D01*
X265299024Y-107630330D01*
X265282308Y-107439054D01*
X265233972Y-107269484D01*
X265154895Y-107117526D01*
X265043485Y-106980216D01*
X264907720Y-106867125D01*
X264756842Y-106786891D01*
X264587792Y-106737822D01*
X264396303Y-106720830D01*
X264189678Y-106739381D01*
X264011437Y-106792455D01*
X263845082Y-106879595D01*
X263672733Y-107007694D01*
X263486437Y-106744278D01*
X263330000Y-106744278D01*
X263317726Y-107875244D01*
X263463173Y-107875244D01*
X263554014Y-107582198D01*
X263660675Y-107355428D01*
X263780404Y-107183335D01*
X263912268Y-107056521D01*
X264057302Y-106968266D01*
X264218463Y-106915012D01*
X264400333Y-106896685D01*
X264575409Y-106915544D01*
X264721443Y-106969169D01*
X264844733Y-107056603D01*
X264941368Y-107172154D01*
X264997795Y-107299394D01*
X265016924Y-107442934D01*
X264998461Y-107589237D01*
X264945975Y-107708295D01*
X264859204Y-107806551D01*
X264766536Y-107863707D01*
X264575157Y-107936376D01*
X264232172Y-108026553D01*
X263893702Y-108114775D01*
X263662478Y-108196975D01*
X263512815Y-108272200D01*
X263380225Y-108371522D01*
X263280217Y-108484849D01*
X263208958Y-108613682D01*
X263165068Y-108761096D01*
X263149748Y-108931472D01*
X263167763Y-109132490D01*
X263219885Y-109310609D01*
X263305306Y-109470250D01*
X263425987Y-109614559D01*
X263571838Y-109731668D01*
X263737754Y-109815856D01*
X263927606Y-109867989D01*
X264146625Y-109886218D01*
X264373793Y-109866919D01*
X264582867Y-109810281D01*
X264777562Y-109716375D01*
X264960687Y-109582868D01*
X265188016Y-109862770D01*
X265344087Y-109862770D01*
X265344087Y-108673918D01*
G37*
G36*
X262576022Y-109297837D02*
G01*
X262666135Y-109470991D01*
X262765830Y-109580979D01*
X262875633Y-109642832D01*
X263000455Y-109663468D01*
X263039106Y-109663468D01*
X263039106Y-109827600D01*
X261929938Y-109827600D01*
X261929938Y-109663468D01*
X262038199Y-109663468D01*
X262192787Y-109644772D01*
X262302531Y-109594592D01*
X262378351Y-109517617D01*
X262400900Y-109437788D01*
X262384596Y-109315056D01*
X262343930Y-109191774D01*
X262206177Y-108819365D01*
X261014394Y-108819365D01*
X260766182Y-109468929D01*
X260750062Y-109541103D01*
X260763345Y-109586286D01*
X260806698Y-109623006D01*
X260897278Y-109651338D01*
X261063670Y-109663468D01*
X261167718Y-109663468D01*
X261167718Y-109827600D01*
X259948091Y-109827600D01*
X259948091Y-109663468D01*
X260048108Y-109663468D01*
X260170521Y-109643646D01*
X260253984Y-109589540D01*
X260308777Y-109498971D01*
X260640018Y-108655234D01*
X261080523Y-108655234D01*
X262131988Y-108655234D01*
X261600027Y-107329911D01*
X261080523Y-108655234D01*
X260640018Y-108655234D01*
X261399443Y-106720830D01*
X261542691Y-106720830D01*
X262576022Y-109297837D01*
G37*
G36*
X259816383Y-106955304D02*
G01*
X259816383Y-106791172D01*
X258795143Y-106791172D01*
X257898466Y-109167045D01*
X257067185Y-106791172D01*
X256025245Y-106791172D01*
X256025245Y-106955304D01*
X256342151Y-106955304D01*
X256415464Y-106966550D01*
X256463381Y-106996567D01*
X256493048Y-107045731D01*
X256504267Y-107121816D01*
X256504267Y-109521685D01*
X256492572Y-109581583D01*
X256459309Y-109623738D01*
X256399819Y-109652142D01*
X256301301Y-109663468D01*
X256025245Y-109663468D01*
X256025245Y-109827600D01*
X257420910Y-109827600D01*
X257420910Y-109663468D01*
X257120308Y-109663468D01*
X257049486Y-109653633D01*
X256995195Y-109626099D01*
X256958489Y-109581749D01*
X256945919Y-109521685D01*
X256940057Y-106945412D01*
X257938949Y-109827600D01*
X258086411Y-109827600D01*
X259153447Y-106994871D01*
X259153447Y-109161549D01*
X259137904Y-109348319D01*
X259098120Y-109473573D01*
X259040607Y-109554658D01*
X258957862Y-109610592D01*
X258835199Y-109648760D01*
X258658122Y-109663468D01*
X258658122Y-109827600D01*
X259816383Y-109827600D01*
X259816383Y-109663468D01*
X259641723Y-109649179D01*
X259521853Y-109612270D01*
X259441959Y-109558505D01*
X259386295Y-109480400D01*
X259348028Y-109361229D01*
X259333148Y-109185180D01*
X259333148Y-107093057D01*
X259351617Y-107017956D01*
X259404659Y-106973087D01*
X259507355Y-106955304D01*
X259816383Y-106955304D01*
G37*
G36*
X255879982Y-106955304D02*
G01*
X255595683Y-106955304D01*
X255507138Y-106967563D01*
X255450933Y-106999516D01*
X255417373Y-107050006D01*
X255404991Y-107125846D01*
X255404991Y-109537989D01*
X255422488Y-109605529D01*
X255473827Y-109646812D01*
X255575350Y-109663468D01*
X255879982Y-109663468D01*
X255879982Y-109827600D01*
X254418738Y-109827600D01*
X254418738Y-109663468D01*
X254768616Y-109663468D01*
X254857197Y-109651224D01*
X254913400Y-109619320D01*
X254946939Y-109568937D01*
X254959309Y-109493292D01*
X254959309Y-108467655D01*
X254424600Y-108467655D01*
X254169966Y-108451334D01*
X253956687Y-108405662D01*
X253778042Y-108334230D01*
X253628490Y-108238678D01*
X253500680Y-108113643D01*
X253411173Y-107972277D01*
X253356696Y-107811270D01*
X253337780Y-107625384D01*
X253339388Y-107608897D01*
X253836769Y-107608897D01*
X253849513Y-107803674D01*
X253883724Y-107952109D01*
X253934897Y-108063831D01*
X254000900Y-108146537D01*
X254086359Y-108209428D01*
X254201208Y-108258459D01*
X254353132Y-108291297D01*
X254551545Y-108303524D01*
X254959309Y-108303524D01*
X254959309Y-107134822D01*
X254947670Y-107058809D01*
X254916361Y-107007995D01*
X254864970Y-106975454D01*
X254790018Y-106961998D01*
X254600821Y-106955304D01*
X254311027Y-106972576D01*
X254126000Y-107015358D01*
X254014638Y-107073456D01*
X253943997Y-107146897D01*
X253888715Y-107253341D01*
X253851068Y-107402935D01*
X253836769Y-107608897D01*
X253339388Y-107608897D01*
X253356003Y-107438562D01*
X253408222Y-107278018D01*
X253493397Y-107138429D01*
X253614019Y-107016303D01*
X253756542Y-106922560D01*
X253928309Y-106852342D01*
X254135049Y-106807314D01*
X254383750Y-106791172D01*
X255879982Y-106791172D01*
X255879982Y-106955304D01*
G37*
G36*
X253173649Y-106955304D02*
G01*
X253173649Y-106791172D01*
X251757468Y-106791172D01*
X251757468Y-106955304D01*
X252099103Y-106955304D01*
X252188052Y-106972221D01*
X252235755Y-107016306D01*
X252252976Y-107093057D01*
X252252976Y-109542202D01*
X252241283Y-109589846D01*
X252205542Y-109626084D01*
X252135819Y-109652481D01*
X252013190Y-109663468D01*
X251591322Y-109663468D01*
X251411807Y-109647193D01*
X251260470Y-109601060D01*
X251131852Y-109526897D01*
X251022175Y-109423500D01*
X250936430Y-109301185D01*
X250856869Y-109138021D01*
X250785209Y-108925039D01*
X250724138Y-108651937D01*
X250569715Y-108651937D01*
X250635844Y-109827600D01*
X253173649Y-109827600D01*
X253173649Y-109663468D01*
X252918110Y-109663468D01*
X252807708Y-109651362D01*
X252745919Y-109622069D01*
X252709372Y-109568320D01*
X252694628Y-109468379D01*
X252694628Y-107097087D01*
X252710389Y-107015373D01*
X252751667Y-106971300D01*
X252823954Y-106955304D01*
X253173649Y-106955304D01*
G37*
G36*
X250362903Y-106955304D02*
G01*
X250362903Y-106791172D01*
X247956256Y-106791172D01*
X247893974Y-107819374D01*
X248044366Y-107819374D01*
X248116425Y-107516928D01*
X248200860Y-107303477D01*
X248293311Y-107158453D01*
X248383548Y-107070628D01*
X248489136Y-107007904D01*
X248613134Y-106969005D01*
X248760059Y-106955304D01*
X249353935Y-106955304D01*
X249433790Y-106972202D01*
X249478540Y-107017980D01*
X249495352Y-107101300D01*
X249495352Y-108174564D01*
X249239080Y-108174564D01*
X249097806Y-108156918D01*
X248984079Y-108107005D01*
X248891400Y-108024904D01*
X248825944Y-107917675D01*
X248782320Y-107769793D01*
X248765921Y-107568597D01*
X248610949Y-107568597D01*
X248610949Y-108985694D01*
X248765921Y-108985694D01*
X248783630Y-108763821D01*
X248830556Y-108602187D01*
X248900524Y-108486423D01*
X248992169Y-108406207D01*
X249109179Y-108356555D01*
X249259596Y-108338695D01*
X249495352Y-108338695D01*
X249495352Y-109533959D01*
X249476701Y-109602921D01*
X249420983Y-109645883D01*
X249308872Y-109663468D01*
X248837911Y-109663468D01*
X248634414Y-109643764D01*
X248464318Y-109587977D01*
X248320744Y-109497977D01*
X248199229Y-109371402D01*
X248098247Y-109201930D01*
X248019368Y-108979898D01*
X247967063Y-108692969D01*
X247808244Y-108692969D01*
X247857704Y-109827600D01*
X250362903Y-109827600D01*
X250362903Y-109663468D01*
X250152426Y-109663468D01*
X250048877Y-109651091D01*
X249985713Y-109619815D01*
X249949908Y-109572798D01*
X249937187Y-109505199D01*
X249937187Y-107101300D01*
X249956134Y-107020883D01*
X250009626Y-106973719D01*
X250111393Y-106955304D01*
X250362903Y-106955304D01*
G37*
G36*
X245980270Y-107943388D02*
G01*
X245909928Y-106791172D01*
X243442281Y-106791172D01*
X243384213Y-107947418D01*
X243538818Y-107947418D01*
X243598437Y-107629291D01*
X243676706Y-107389440D01*
X243768971Y-107212638D01*
X243872631Y-107086148D01*
X243987502Y-107000320D01*
X244115940Y-106949337D01*
X244262571Y-106931856D01*
X244357732Y-106942695D01*
X244412048Y-106969225D01*
X244444289Y-107017297D01*
X244457294Y-107106246D01*
X244457294Y-109526082D01*
X244438847Y-109600947D01*
X244385825Y-109645713D01*
X244283087Y-109663468D01*
X243970029Y-109663468D01*
X243970029Y-109827600D01*
X245390423Y-109827600D01*
X245390423Y-109663468D01*
X245036516Y-109663468D01*
X244959620Y-109648671D01*
X244918185Y-109609949D01*
X244903159Y-109542202D01*
X244903159Y-107081882D01*
X244914802Y-107016875D01*
X244947129Y-106972358D01*
X245003123Y-106943254D01*
X245093668Y-106931856D01*
X245236740Y-106949063D01*
X245362976Y-106999421D01*
X245476792Y-107084512D01*
X245580431Y-107210300D01*
X245673715Y-107386490D01*
X245754179Y-107625800D01*
X245817421Y-107943388D01*
X245980270Y-107943388D01*
G37*
G36*
X243261297Y-106955304D02*
G01*
X243261297Y-106791172D01*
X240854651Y-106791172D01*
X240792369Y-107819374D01*
X240942761Y-107819374D01*
X241014820Y-107516928D01*
X241099255Y-107303477D01*
X241191706Y-107158453D01*
X241281943Y-107070628D01*
X241387531Y-107007904D01*
X241511529Y-106969005D01*
X241658454Y-106955304D01*
X242252330Y-106955304D01*
X242332185Y-106972202D01*
X242376935Y-107017980D01*
X242393747Y-107101300D01*
X242393747Y-108174564D01*
X242137475Y-108174564D01*
X241996201Y-108156918D01*
X241882474Y-108107005D01*
X241789795Y-108024904D01*
X241724339Y-107917675D01*
X241680715Y-107769793D01*
X241664316Y-107568597D01*
X241509344Y-107568597D01*
X241509344Y-108985694D01*
X241664316Y-108985694D01*
X241682025Y-108763821D01*
X241728951Y-108602187D01*
X241798919Y-108486423D01*
X241890564Y-108406207D01*
X242007574Y-108356555D01*
X242157991Y-108338695D01*
X242393747Y-108338695D01*
X242393747Y-109533959D01*
X242375096Y-109602921D01*
X242319378Y-109645883D01*
X242207267Y-109663468D01*
X241736306Y-109663468D01*
X241532809Y-109643764D01*
X241362713Y-109587977D01*
X241219139Y-109497977D01*
X241097624Y-109371402D01*
X240996642Y-109201930D01*
X240917763Y-108979898D01*
X240865458Y-108692969D01*
X240706639Y-108692969D01*
X240756099Y-109827600D01*
X243261297Y-109827600D01*
X243261297Y-109663468D01*
X243050821Y-109663468D01*
X242947272Y-109651091D01*
X242884108Y-109619815D01*
X242848303Y-109572798D01*
X242835582Y-109505199D01*
X242835582Y-107101300D01*
X242854529Y-107020883D01*
X242908021Y-106973719D01*
X243009788Y-106955304D01*
X243261297Y-106955304D01*
G37*
G36*
X240537379Y-106955304D02*
G01*
X240537379Y-106791172D01*
X239284963Y-106791172D01*
X239284963Y-106955304D01*
X239483166Y-106955304D01*
X239616129Y-106969565D01*
X239673887Y-107000935D01*
X239690345Y-107043781D01*
X239670561Y-107102399D01*
X239634108Y-107154789D01*
X239053421Y-107999442D01*
X238620012Y-107331377D01*
X238569453Y-107238137D01*
X238535015Y-107154239D01*
X238553467Y-107056218D01*
X238602609Y-106999084D01*
X238688558Y-106969183D01*
X238879031Y-106955304D01*
X238879031Y-106791172D01*
X237769863Y-106791172D01*
X237769863Y-106955304D01*
X237923566Y-106974391D01*
X238063249Y-107030999D01*
X238193169Y-107127838D01*
X238315563Y-107272209D01*
X238939665Y-108178228D01*
X237983637Y-109555391D01*
X237933049Y-109612297D01*
X237873728Y-109643501D01*
X237799349Y-109657604D01*
X237675708Y-109663468D01*
X237675708Y-109827600D01*
X238879031Y-109827600D01*
X238879031Y-109663468D01*
X238709221Y-109663468D01*
X238577803Y-109648349D01*
X238519388Y-109614521D01*
X238502226Y-109566931D01*
X238520177Y-109503733D01*
X238566706Y-109435223D01*
X239176153Y-108541111D01*
X239633925Y-109189393D01*
X239694924Y-109291059D01*
X239728762Y-109380722D01*
X239739438Y-109464533D01*
X239724275Y-109551354D01*
X239682455Y-109610348D01*
X239610683Y-109648579D01*
X239495439Y-109663468D01*
X239370875Y-109663468D01*
X239370875Y-109827600D01*
X240537379Y-109827600D01*
X240537379Y-109663468D01*
X240417197Y-109652775D01*
X240308483Y-109621576D01*
X240208934Y-109570045D01*
X240072782Y-109457790D01*
X239930130Y-109285014D01*
X239297969Y-108362692D01*
X240118625Y-107178053D01*
X240218427Y-107056178D01*
X240292648Y-106997619D01*
X240381629Y-106967806D01*
X240537379Y-106955304D01*
G37*
G36*
X237577339Y-107943388D02*
G01*
X237506997Y-106791172D01*
X235039351Y-106791172D01*
X234981282Y-107947418D01*
X235135887Y-107947418D01*
X235195506Y-107629291D01*
X235273775Y-107389440D01*
X235366040Y-107212638D01*
X235469700Y-107086148D01*
X235584571Y-107000320D01*
X235713009Y-106949337D01*
X235859640Y-106931856D01*
X235954802Y-106942695D01*
X236009117Y-106969225D01*
X236041358Y-107017297D01*
X236054363Y-107106246D01*
X236054363Y-109526082D01*
X236035916Y-109600947D01*
X235982894Y-109645713D01*
X235880157Y-109663468D01*
X235567098Y-109663468D01*
X235567098Y-109827600D01*
X236987493Y-109827600D01*
X236987493Y-109663468D01*
X236633585Y-109663468D01*
X236556689Y-109648671D01*
X236515254Y-109609949D01*
X236500228Y-109542202D01*
X236500228Y-107081882D01*
X236511871Y-107016875D01*
X236544198Y-106972358D01*
X236600192Y-106943254D01*
X236690737Y-106931856D01*
X236833809Y-106949063D01*
X236960045Y-106999421D01*
X237073861Y-107084512D01*
X237177500Y-107210300D01*
X237270784Y-107386490D01*
X237351249Y-107625800D01*
X237414490Y-107943388D01*
X237577339Y-107943388D01*
G37*
%TO.C,ANT0*%
D11*
X185391400Y-150713000D02*
X185391400Y-108113000D01*
X185991400Y-150713000D02*
X185991400Y-108113000D01*
X186591400Y-150713000D02*
X186591400Y-108113000D01*
X187191400Y-150713000D02*
X187191400Y-108113000D01*
X187791400Y-150713000D02*
X187791400Y-108113000D01*
X207416400Y-128778000D02*
X207826400Y-128778000D01*
X207691400Y-105413000D02*
X188091400Y-105413000D01*
X207691400Y-106013000D02*
X188091400Y-106013000D01*
X207691400Y-106613000D02*
X188091400Y-106613000D01*
X207691400Y-107213000D02*
X188091400Y-107213000D01*
X207691400Y-107813000D02*
X188091400Y-107813000D01*
X207691400Y-151013000D02*
X188091400Y-151013000D01*
X207691400Y-151613000D02*
X188091400Y-151613000D01*
X207691400Y-152213000D02*
X188091400Y-152213000D01*
X207691400Y-152813000D02*
X188091400Y-152813000D01*
X207691400Y-153413000D02*
X188091400Y-153413000D01*
X207826400Y-128778000D02*
X207991400Y-128613000D01*
X207991400Y-108113000D02*
X207991400Y-128613000D01*
X207991400Y-129413000D02*
X208591400Y-128813000D01*
X207991400Y-150713000D02*
X207991400Y-129413000D01*
X208591400Y-108113000D02*
X208591400Y-128813000D01*
X208591400Y-129613000D02*
X209191400Y-129013000D01*
X208591400Y-150713000D02*
X208591400Y-129613000D01*
X209191400Y-129013000D02*
X209191400Y-108113000D01*
X209191400Y-129813000D02*
X209791400Y-129213000D01*
X209191400Y-150713000D02*
X209191400Y-129813000D01*
X209791400Y-129213000D02*
X209791400Y-108113000D01*
X209791400Y-130013000D02*
X210391400Y-129413000D01*
X209791400Y-150713000D02*
X209791400Y-130013000D01*
X210391400Y-129413000D02*
X210391400Y-108113000D01*
X210391400Y-130213000D02*
X210391400Y-150713000D01*
X210556400Y-130048000D02*
X210391400Y-130213000D01*
X211226400Y-130048000D02*
X210556400Y-130048000D01*
X211353400Y-130048000D02*
X211226400Y-130048000D01*
X185391400Y-108113000D02*
G75*
G02*
X188091400Y-105413000I2700000J0D01*
G01*
X185991400Y-108113000D02*
G75*
G02*
X188091400Y-106013000I2100000J0D01*
G01*
X186591400Y-108113000D02*
G75*
G02*
X188091400Y-106613000I1500000J0D01*
G01*
X187191400Y-108113000D02*
G75*
G02*
X188091400Y-107213000I900000J0D01*
G01*
X187791400Y-108113000D02*
G75*
G02*
X188091400Y-107813000I300000J0D01*
G01*
X188091400Y-151013000D02*
G75*
G02*
X187791400Y-150713000I0J300000D01*
G01*
X188091400Y-151613000D02*
G75*
G02*
X187191400Y-150713000I0J900000D01*
G01*
X188091400Y-152213000D02*
G75*
G02*
X186591400Y-150713000I1J1500001D01*
G01*
X188091400Y-152813000D02*
G75*
G02*
X185991400Y-150713000I1J2100001D01*
G01*
X188091400Y-153413000D02*
G75*
G02*
X185391400Y-150713000I1J2700001D01*
G01*
X207691400Y-105413000D02*
G75*
G02*
X210391400Y-108113000I0J-2700000D01*
G01*
X207691400Y-106013000D02*
G75*
G02*
X209791400Y-108113000I0J-2100000D01*
G01*
X207691400Y-106613000D02*
G75*
G02*
X209191400Y-108113000I0J-1500000D01*
G01*
X207691400Y-107213000D02*
G75*
G02*
X208591400Y-108113000I0J-900000D01*
G01*
X207691400Y-107813000D02*
G75*
G02*
X207991400Y-108113000I0J-300000D01*
G01*
X207991400Y-150713000D02*
G75*
G02*
X207691400Y-151013000I-300000J0D01*
G01*
X208591400Y-150713000D02*
G75*
G02*
X207691400Y-151613000I-900000J0D01*
G01*
X209191400Y-150713000D02*
G75*
G02*
X207691400Y-152213000I-1500001J1D01*
G01*
X209791400Y-150713000D02*
G75*
G02*
X207691400Y-152813000I-2100001J1D01*
G01*
X210391400Y-150713000D02*
G75*
G02*
X207691400Y-153413000I-2700001J1D01*
G01*
%TD*%
D12*
%TO.P,REF\u002A\u002A,1*%
%TO.N,N/C*%
X267031200Y-108407200D03*
X267514474Y-107240474D03*
X267514474Y-109573926D03*
X268681200Y-106757200D03*
D13*
X268681200Y-108407200D03*
D12*
X268681200Y-110057200D03*
X269847926Y-107240474D03*
X269847926Y-109573926D03*
X270331200Y-108407200D03*
%TD*%
D14*
%TO.P,REF\u002A\u002A,1*%
%TO.N,N/C*%
X267106400Y-113182400D03*
%TO.P,REF\u002A\u002A,2*%
X270106400Y-113182400D03*
%TD*%
D15*
%TO.P,REF\u002A\u002A,1*%
%TO.N,N/C*%
X270439000Y-136017000D03*
%TO.P,REF\u002A\u002A,2*%
X269359000Y-136017000D03*
%TD*%
D16*
%TO.P,ANT0,P$1*%
%TO.N,N$2*%
X211226400Y-130048000D03*
D17*
%TO.P,ANT0,P$2*%
%TO.N,N$1*%
X207416400Y-128778000D03*
%TD*%
D18*
%TO.P,NT3H1101,FD*%
%TO.N,N/C*%
X221427600Y-129235200D03*
D19*
%TO.P,NT3H1101,LA*%
%TO.N,N$1*%
X220277600Y-128635200D03*
D18*
%TO.P,NT3H1101,LB*%
%TO.N,N$2*%
X220227600Y-129235200D03*
D20*
%TO.P,NT3H1101,SCL*%
%TO.N,N/C*%
X221327600Y-128635200D03*
%TO.P,NT3H1101,SDA*%
X221327600Y-129835200D03*
%TO.P,NT3H1101,VCC*%
%TO.N,N$3*%
X220827600Y-129835200D03*
%TO.P,NT3H1101,VOUT*%
X220327600Y-129835200D03*
%TO.P,NT3H1101,VSS*%
%TO.N,N$6*%
X220827600Y-128635200D03*
%TD*%
D21*
%TO.P,C1,1*%
%TO.N,N$3*%
X225094800Y-130034400D03*
%TO.P,C1,2*%
%TO.N,N$6*%
X225094800Y-128334400D03*
%TD*%
D15*
%TO.P,REF\u002A\u002A,1*%
%TO.N,N/C*%
X270413600Y-150164800D03*
%TO.P,REF\u002A\u002A,2*%
X269333600Y-150164800D03*
%TD*%
%TO.P,REF\u002A\u002A,1*%
%TO.N,N/C*%
X270439000Y-143103600D03*
%TO.P,REF\u002A\u002A,2*%
X269359000Y-143103600D03*
%TD*%
%TO.P,REF\u002A\u002A,1*%
%TO.N,N/C*%
X270439000Y-140716000D03*
%TO.P,REF\u002A\u002A,2*%
X269359000Y-140716000D03*
%TD*%
%TO.P,REF\u002A\u002A,1*%
%TO.N,N/C*%
X270420200Y-152501600D03*
%TO.P,REF\u002A\u002A,2*%
X269340200Y-152501600D03*
%TD*%
D14*
%TO.P,REF\u002A\u002A,1*%
%TO.N,N/C*%
X267106400Y-122097800D03*
%TO.P,REF\u002A\u002A,2*%
X270106400Y-122097800D03*
%TD*%
%TO.P,REF\u002A\u002A,1*%
%TO.N,N/C*%
X267106400Y-117602000D03*
%TO.P,REF\u002A\u002A,2*%
X270106400Y-117602000D03*
%TD*%
%TO.P,REF\u002A\u002A,1*%
%TO.N,N/C*%
X267208000Y-126492000D03*
%TO.P,REF\u002A\u002A,2*%
X270208000Y-126492000D03*
%TD*%
D22*
%TO.P,R1,1*%
%TO.N,N$3*%
X226594800Y-128334400D03*
%TO.P,R1,2*%
%TO.N,N$4*%
X226594800Y-130034400D03*
%TD*%
D15*
%TO.P,REF\u002A\u002A,1*%
%TO.N,N/C*%
X270471000Y-133680200D03*
%TO.P,REF\u002A\u002A,2*%
X269391000Y-133680200D03*
%TD*%
%TO.P,REF\u002A\u002A,1*%
%TO.N,N/C*%
X270413600Y-138328400D03*
%TO.P,REF\u002A\u002A,2*%
X269333600Y-138328400D03*
%TD*%
%TO.P,REF\u002A\u002A,1*%
%TO.N,N/C*%
X270413600Y-145415000D03*
%TO.P,REF\u002A\u002A,2*%
X269333600Y-145415000D03*
%TD*%
D23*
%TO.P,LED1,A*%
%TO.N,N$4*%
X222990522Y-147987442D03*
%TO.P,LED1,C*%
%TO.N,N$6*%
X224963878Y-147269200D03*
%TD*%
D15*
%TO.P,REF\u002A\u002A,1*%
%TO.N,N/C*%
X270420200Y-147777200D03*
%TO.P,REF\u002A\u002A,2*%
X269340200Y-147777200D03*
%TD*%
D24*
%TO.N,N$1*%
X211234395Y-128790174D03*
%TD*%
%TO.N,N$2*%
D25*
X211240395Y-130009174D02*
X213856595Y-130009174D01*
X213856595Y-130009174D02*
X214212195Y-129653574D01*
X214212195Y-129653574D02*
X214212195Y-129094205D01*
X214212195Y-129094205D02*
X214325200Y-128981200D01*
X219973600Y-128981200D02*
X220227600Y-129235200D01*
X214325200Y-128981200D02*
X219973600Y-128981200D01*
%TO.N,N$1*%
X220227600Y-128635200D02*
X220277600Y-128635200D01*
X211754569Y-128270000D02*
X219862400Y-128270000D01*
X219862400Y-128270000D02*
X220227600Y-128635200D01*
X211234395Y-128790174D02*
X211754569Y-128270000D01*
X211214995Y-128770774D02*
X211234395Y-128790174D01*
%TO.N,N$3*%
X225094800Y-130034400D02*
X222771600Y-130034400D01*
X226594800Y-128334400D02*
X226594800Y-128534400D01*
X222199200Y-130606800D02*
X221030800Y-130606800D01*
X221030800Y-130606800D02*
X220827600Y-130403600D01*
X226594800Y-128534400D02*
X225094800Y-130034400D01*
X220827600Y-130403600D02*
X220827600Y-129835200D01*
X222771600Y-130034400D02*
X222199200Y-130606800D01*
%TO.N,N$6*%
X226771200Y-143408400D02*
X226771200Y-145461878D01*
X227990400Y-127711200D02*
X227990400Y-139446000D01*
X221386400Y-126898400D02*
X220827600Y-127457200D01*
X226771200Y-145461878D02*
X224963878Y-147269200D01*
X227990400Y-139446000D02*
X227939600Y-139496800D01*
X227228400Y-126949200D02*
X227990400Y-127711200D01*
X227939600Y-142240000D02*
X226771200Y-143408400D01*
X223672400Y-126898400D02*
X221386400Y-126898400D01*
X227939600Y-139496800D02*
X227939600Y-142240000D01*
X225094800Y-127863600D02*
X226009200Y-126949200D01*
X226009200Y-126949200D02*
X227228400Y-126949200D01*
X220827600Y-127457200D02*
X220827600Y-128635200D01*
X225094800Y-128334400D02*
X225094800Y-128320800D01*
X225094800Y-128334400D02*
X225094800Y-127863600D01*
X225094800Y-128320800D02*
X223672400Y-126898400D01*
%TO.N,N$4*%
X223723200Y-143306800D02*
X223215200Y-143814800D01*
X224840800Y-143306800D02*
X223723200Y-143306800D01*
X226594800Y-130034400D02*
X226594800Y-139774800D01*
X226060000Y-140919200D02*
X225298000Y-141681200D01*
X222990522Y-146641643D02*
X222990522Y-147987442D01*
X223215200Y-143814800D02*
X221843600Y-143814800D01*
X221234000Y-144885121D02*
X222990522Y-146641643D01*
X226594800Y-139774800D02*
X226060000Y-140309600D01*
X221234000Y-144681921D02*
X221234000Y-144885121D01*
X221742000Y-144173921D02*
X221234000Y-144681921D01*
X225298000Y-141681200D02*
X225298000Y-142849600D01*
X226060000Y-140309600D02*
X226060000Y-140919200D01*
X225298000Y-142849600D02*
X224840800Y-143306800D01*
X221742000Y-143916400D02*
X221742000Y-144173921D01*
X221843600Y-143814800D02*
X221742000Y-143916400D01*
%TD*%
M02*
