%TF.GenerationSoftware,KiCad,Pcbnew,10.0.3*%
%TF.CreationDate,2026-06-21T22:23:49-05:00*%
%TF.ProjectId,SaxCard V2,53617843-6172-4642-9056-322e6b696361,rev?*%
%TF.SameCoordinates,Original*%
%TF.FileFunction,Soldermask,Top*%
%TF.FilePolarity,Negative*%
%FSLAX46Y46*%
G04 Gerber Fmt 4.6, Leading zero omitted, Abs format (unit mm)*
G04 Created by KiCad (PCBNEW 10.0.3) date 2026-06-21 22:23:49*
%MOMM*%
%LPD*%
G01*
G04 APERTURE LIST*
G04 Aperture macros list*
%AMRoundRect*
0 Rectangle with rounded corners*
0 $1 Rounding radius*
0 $2 $3 $4 $5 $6 $7 $8 $9 X,Y pos of 4 corners*
0 Add a 4 corners polygon primitive as box body*
4,1,4,$2,$3,$4,$5,$6,$7,$8,$9,$2,$3,0*
0 Add four circle primitives for the rounded corners*
1,1,$1+$1,$2,$3*
1,1,$1+$1,$4,$5*
1,1,$1+$1,$6,$7*
1,1,$1+$1,$8,$9*
0 Add four rect primitives between the rounded corners*
20,1,$1+$1,$2,$3,$4,$5,0*
20,1,$1+$1,$4,$5,$6,$7,0*
20,1,$1+$1,$6,$7,$8,$9,0*
20,1,$1+$1,$8,$9,$2,$3,0*%
G04 Aperture macros list end*
%ADD10C,0.300000*%
%ADD11C,0.700000*%
%ADD12C,4.400000*%
%ADD13RoundRect,0.050000X-0.387500X-0.050000X0.387500X-0.050000X0.387500X0.050000X-0.387500X0.050000X0*%
%ADD14RoundRect,0.050000X-0.050000X-0.387500X0.050000X-0.387500X0.050000X0.387500X-0.050000X0.387500X0*%
%ADD15R,3.200000X3.200000*%
%ADD16C,1.011200*%
G04 APERTURE END LIST*
D10*
G36*
X212219763Y-152620637D02*
G01*
X212089121Y-152584194D01*
X211972834Y-152572826D01*
X211887741Y-152579943D01*
X211818158Y-152599794D01*
X211761075Y-152631078D01*
X211715979Y-152675125D01*
X211689085Y-152729204D01*
X211679651Y-152796583D01*
X211690279Y-152851739D01*
X211724146Y-152906413D01*
X211788270Y-152962990D01*
X211894065Y-153022172D01*
X212105915Y-153124754D01*
X212156870Y-153157829D01*
X212211520Y-153203889D01*
X212259749Y-153258494D01*
X212297707Y-153322591D01*
X212321918Y-153394038D01*
X212330314Y-153476281D01*
X212320662Y-153579845D01*
X212293281Y-153667089D01*
X212249165Y-153741231D01*
X212187432Y-153804451D01*
X212112970Y-153855377D01*
X212032901Y-153891538D01*
X211946054Y-153913518D01*
X211850926Y-153921047D01*
X211728098Y-153911972D01*
X211618735Y-153885802D01*
X211520649Y-153843378D01*
X211556827Y-153691245D01*
X211671124Y-153736755D01*
X211766684Y-153761211D01*
X211846804Y-153768639D01*
X211939127Y-153759829D01*
X212013894Y-153735223D01*
X212074775Y-153696099D01*
X212121843Y-153642496D01*
X212150420Y-153577090D01*
X212160504Y-153496247D01*
X212154056Y-153435665D01*
X212135424Y-153383030D01*
X212104633Y-153336604D01*
X212063385Y-153297509D01*
X211997150Y-153252796D01*
X211897821Y-153201691D01*
X211696045Y-153103871D01*
X211651557Y-153073690D01*
X211604821Y-153031514D01*
X211564472Y-152982145D01*
X211534662Y-152927559D01*
X211516166Y-152867896D01*
X211509841Y-152801896D01*
X211518482Y-152714376D01*
X211543137Y-152640052D01*
X211583215Y-152576229D01*
X211639900Y-152521169D01*
X211707081Y-152478197D01*
X211783176Y-152446836D01*
X211869743Y-152427267D01*
X211968712Y-152420419D01*
X212064658Y-152425657D01*
X212161293Y-152441502D01*
X212259147Y-152468321D01*
X212219763Y-152620637D01*
G37*
G36*
X213748052Y-153897600D02*
G01*
X213565602Y-153897600D01*
X213405776Y-153393482D01*
X212935547Y-153393482D01*
X212773706Y-153897600D01*
X212593363Y-153897600D01*
X212807544Y-153241075D01*
X212985648Y-153241075D01*
X213355676Y-153241075D01*
X213170204Y-152662586D01*
X212985648Y-153241075D01*
X212807544Y-153241075D01*
X213067622Y-152443866D01*
X213273702Y-152443866D01*
X213748052Y-153897600D01*
G37*
G36*
X214896054Y-153897600D02*
G01*
X214728351Y-153897600D01*
X214731282Y-152651961D01*
X214515035Y-153252798D01*
X214352186Y-153252798D01*
X214135940Y-152651961D01*
X214138871Y-153897600D01*
X213971076Y-153897600D01*
X213971076Y-152443866D01*
X214194283Y-152443866D01*
X214434069Y-153099841D01*
X214672938Y-152443866D01*
X214896054Y-152443866D01*
X214896054Y-153897600D01*
G37*
G36*
X215790211Y-152451185D02*
G01*
X215879278Y-152471870D01*
X215955467Y-152504658D01*
X216020792Y-152549196D01*
X216075365Y-152606095D01*
X216114250Y-152672062D01*
X216138290Y-152748900D01*
X216146730Y-152839265D01*
X216138391Y-152930099D01*
X216114526Y-153008338D01*
X216075784Y-153076417D01*
X216021342Y-153136020D01*
X215955873Y-153183346D01*
X215880624Y-153217813D01*
X215793775Y-153239361D01*
X215692988Y-153246937D01*
X215489931Y-153246937D01*
X215489931Y-153897600D01*
X215315999Y-153897600D01*
X215315999Y-153094529D01*
X215489931Y-153094529D01*
X215669358Y-153094529D01*
X215768054Y-153086096D01*
X215840706Y-153063589D01*
X215893498Y-153029617D01*
X215930694Y-152984408D01*
X215954059Y-152925778D01*
X215962541Y-152849523D01*
X215953370Y-152777467D01*
X215927019Y-152717292D01*
X215883040Y-152666158D01*
X215826448Y-152628109D01*
X215758941Y-152604585D01*
X215677601Y-152596274D01*
X215489931Y-152596274D01*
X215489931Y-153094529D01*
X215315999Y-153094529D01*
X215315999Y-152443866D01*
X215685752Y-152443866D01*
X215790211Y-152451185D01*
G37*
G36*
X217367639Y-153897600D02*
G01*
X216574827Y-153897600D01*
X216574827Y-152443866D01*
X216748758Y-152443866D01*
X216748758Y-153745192D01*
X217367639Y-153745192D01*
X217367639Y-153897600D01*
G37*
G36*
X218594685Y-153897600D02*
G01*
X217833654Y-153897600D01*
X217833654Y-152443866D01*
X218588548Y-152443866D01*
X218588548Y-152596274D01*
X218007586Y-152596274D01*
X218007586Y-153041773D01*
X218566017Y-153041773D01*
X218566017Y-153194180D01*
X218007586Y-153194180D01*
X218007586Y-153745192D01*
X218594685Y-153745192D01*
X218594685Y-153897600D01*
G37*
G36*
X221255772Y-152584550D02*
G01*
X220810089Y-152584550D01*
X220810089Y-153897600D01*
X220637165Y-153897600D01*
X220637165Y-152584550D01*
X220189377Y-152584550D01*
X220189377Y-152443866D01*
X221255772Y-152443866D01*
X221255772Y-152584550D01*
G37*
G36*
X222371168Y-153897600D02*
G01*
X221610137Y-153897600D01*
X221610137Y-152443866D01*
X222365031Y-152443866D01*
X222365031Y-152596274D01*
X221784069Y-152596274D01*
X221784069Y-153041773D01*
X222342500Y-153041773D01*
X222342500Y-153194180D01*
X221784069Y-153194180D01*
X221784069Y-153745192D01*
X222371168Y-153745192D01*
X222371168Y-153897600D01*
G37*
G36*
X223806583Y-153897600D02*
G01*
X223613142Y-153897600D01*
X223247969Y-153308394D01*
X222885818Y-153897600D01*
X222692377Y-153897600D01*
X223156378Y-153160749D01*
X222694392Y-152443866D01*
X222894061Y-152443866D01*
X223247969Y-153010723D01*
X223604899Y-152443866D01*
X223796325Y-152443866D01*
X223341575Y-153157269D01*
X223806583Y-153897600D01*
G37*
G36*
X225032254Y-152584550D02*
G01*
X224586572Y-152584550D01*
X224586572Y-153897600D01*
X224413648Y-153897600D01*
X224413648Y-152584550D01*
X223965860Y-152584550D01*
X223965860Y-152443866D01*
X225032254Y-152443866D01*
X225032254Y-152584550D01*
G37*
G36*
X221357691Y-147738410D02*
G01*
X221222466Y-147594562D01*
X221028879Y-147490199D01*
X220812206Y-147429097D01*
X220609392Y-147409599D01*
X220357517Y-147437686D01*
X220109000Y-147524698D01*
X220001372Y-147593610D01*
X219909636Y-147681624D01*
X219842233Y-147788115D01*
X219804917Y-147918234D01*
X219810081Y-148074756D01*
X219864146Y-148193618D01*
X219959025Y-148290524D01*
X220094956Y-148374968D01*
X220444833Y-148503806D01*
X220846918Y-148629286D01*
X221242286Y-148796593D01*
X221422513Y-148907868D01*
X221574457Y-149043888D01*
X221694320Y-149209683D01*
X221780842Y-149420328D01*
X221818131Y-149658869D01*
X221798549Y-149967126D01*
X221743619Y-150235342D01*
X221658085Y-150473364D01*
X221543010Y-150685200D01*
X221319921Y-150966640D01*
X221053303Y-151193836D01*
X220747843Y-151368784D01*
X220403007Y-151493339D01*
X220037989Y-151566435D01*
X219658066Y-151591036D01*
X219338933Y-151573760D01*
X219048659Y-151523752D01*
X218783677Y-151442964D01*
X218534137Y-151325432D01*
X218299266Y-151166620D01*
X218077204Y-150963027D01*
X218979376Y-150106345D01*
X219142811Y-150304741D01*
X219353679Y-150452559D01*
X219596753Y-150544152D01*
X219860788Y-150574986D01*
X220133424Y-150543845D01*
X220392321Y-150449811D01*
X220502481Y-150377662D01*
X220591684Y-150289527D01*
X220657038Y-150183948D01*
X220693351Y-150059328D01*
X220694586Y-149917258D01*
X220653744Y-149802785D01*
X220570619Y-149707313D01*
X220397963Y-149591576D01*
X220168534Y-149487800D01*
X219637000Y-149306755D01*
X219360603Y-149199534D01*
X219112489Y-149062817D01*
X218900183Y-148885178D01*
X218738187Y-148658595D01*
X218671608Y-148485826D01*
X218642192Y-148269134D01*
X218657586Y-147996392D01*
X218712317Y-147737663D01*
X218797753Y-147506664D01*
X218913126Y-147299689D01*
X219136366Y-147024007D01*
X219406191Y-146797770D01*
X219714093Y-146621634D01*
X220056487Y-146494604D01*
X220415967Y-146418697D01*
X220777309Y-146393548D01*
X221188630Y-146424019D01*
X221571098Y-146513533D01*
X221809901Y-146611824D01*
X222024602Y-146745280D01*
X222218037Y-146915617D01*
X221357691Y-147738410D01*
G37*
G36*
X227087018Y-151473800D02*
G01*
X225855728Y-151473800D01*
X225576070Y-150418670D01*
X223652353Y-150418670D01*
X223092731Y-151473800D01*
X221889530Y-151473800D01*
X223020456Y-149500317D01*
X224120994Y-149500317D01*
X225331217Y-149500317D01*
X224939512Y-147961282D01*
X224120994Y-149500317D01*
X223020456Y-149500317D01*
X224722442Y-146530324D01*
X225624919Y-146530324D01*
X227087018Y-151473800D01*
G37*
G36*
X228275564Y-146530324D02*
G01*
X229926341Y-146530324D01*
X230612053Y-149756162D01*
X230625791Y-149756162D01*
X232227719Y-146530324D01*
X233871779Y-146530324D01*
X233179045Y-151473800D01*
X232087890Y-151473800D01*
X232619424Y-147682540D01*
X232605380Y-147682540D01*
X230772948Y-151473800D01*
X229940385Y-151473800D01*
X229219868Y-147682540D01*
X229205824Y-147682540D01*
X228674291Y-151473800D01*
X227583136Y-151473800D01*
X228275564Y-146530324D01*
G37*
G36*
X237096868Y-146548281D02*
G01*
X237436503Y-146599933D01*
X237749477Y-146697346D01*
X237999788Y-146840207D01*
X238139182Y-146965775D01*
X238253035Y-147117812D01*
X238342339Y-147299995D01*
X238395401Y-147495993D01*
X238414099Y-147735285D01*
X238391493Y-148027838D01*
X238333445Y-148311083D01*
X238251037Y-148550532D01*
X238146639Y-148752324D01*
X237940880Y-149017299D01*
X237695400Y-149219133D01*
X237410608Y-149366469D01*
X237079909Y-149466429D01*
X236726986Y-149520690D01*
X236341990Y-149539396D01*
X235544537Y-149539396D01*
X235278618Y-151473800D01*
X234187463Y-151473800D01*
X234587046Y-148621043D01*
X235677344Y-148621043D01*
X236404882Y-148621043D01*
X236691562Y-148593260D01*
X236826868Y-148555360D01*
X236950154Y-148498922D01*
X237059894Y-148420951D01*
X237153181Y-148317571D01*
X237220005Y-148191440D01*
X237258206Y-148027838D01*
X237259838Y-147851208D01*
X237212716Y-147724366D01*
X237126068Y-147622907D01*
X237009994Y-147546375D01*
X236874312Y-147495554D01*
X236715987Y-147466080D01*
X236397860Y-147448677D01*
X235838239Y-147448677D01*
X235677344Y-148621043D01*
X234587046Y-148621043D01*
X234879891Y-146530324D01*
X236719650Y-146530324D01*
X237096868Y-146548281D01*
G37*
G36*
X239327859Y-146530324D02*
G01*
X240419319Y-146530324D01*
X239866719Y-150457749D01*
X241888134Y-150457749D01*
X241748305Y-151473800D01*
X238635430Y-151473800D01*
X239327859Y-146530324D01*
G37*
G36*
X243084314Y-146530324D02*
G01*
X246449064Y-146530324D01*
X246309235Y-147546375D01*
X244035639Y-147546375D01*
X243902832Y-148445188D01*
X246050338Y-148445188D01*
X245910509Y-149461238D01*
X243763003Y-149461238D01*
X243623174Y-150457749D01*
X246022250Y-150457749D01*
X245882421Y-151473800D01*
X242391885Y-151473800D01*
X243084314Y-146530324D01*
G37*
G36*
X250345348Y-147487756D02*
G01*
X248932098Y-147487756D01*
X249065210Y-146530324D01*
X252982255Y-146530324D01*
X252849448Y-147487756D01*
X251436503Y-147487756D01*
X250876882Y-151473800D01*
X249785727Y-151473800D01*
X250345348Y-147487756D01*
G37*
G36*
X253576986Y-146530324D02*
G01*
X256941737Y-146530324D01*
X256801908Y-147546375D01*
X254528312Y-147546375D01*
X254395505Y-148445188D01*
X256543010Y-148445188D01*
X256403181Y-149461238D01*
X254255676Y-149461238D01*
X254115847Y-150457749D01*
X256514922Y-150457749D01*
X256375093Y-151473800D01*
X252884558Y-151473800D01*
X253576986Y-146530324D01*
G37*
G36*
X258843778Y-148890321D02*
G01*
X257535552Y-146530324D01*
X258906671Y-146530324D01*
X259718167Y-148262006D01*
X260977239Y-146530324D01*
X262299204Y-146530324D01*
X260368464Y-148869255D01*
X261795453Y-151473800D01*
X260424640Y-151473800D01*
X259494075Y-149483831D01*
X258039303Y-151473800D01*
X256745121Y-151473800D01*
X258843778Y-148890321D01*
G37*
G36*
X263817784Y-147487756D02*
G01*
X262404533Y-147487756D01*
X262537646Y-146530324D01*
X266454690Y-146530324D01*
X266321883Y-147487756D01*
X264908939Y-147487756D01*
X264349317Y-151473800D01*
X263258162Y-151473800D01*
X263817784Y-147487756D01*
G37*
D11*
%TO.C,REF\u002A\u002A*%
X267031200Y-108407200D03*
X267514474Y-107240474D03*
X267514474Y-109573926D03*
X268681200Y-106757200D03*
D12*
X268681200Y-108407200D03*
D11*
X268681200Y-110057200D03*
X269847926Y-107240474D03*
X269847926Y-109573926D03*
X270331200Y-108407200D03*
%TD*%
D13*
%TO.C,REF\u002A\u002A*%
X225345676Y-121085200D03*
X225345676Y-121485200D03*
X225345676Y-121885200D03*
X225345676Y-122285200D03*
X225345676Y-122685200D03*
X225345676Y-123085200D03*
X225345676Y-123485200D03*
X225345676Y-123885200D03*
X225345676Y-124285200D03*
X225345676Y-124685200D03*
X225345676Y-125085200D03*
X225345676Y-125485200D03*
X225345676Y-125885200D03*
X225345676Y-126285200D03*
D14*
X226183176Y-127122700D03*
X226583176Y-127122700D03*
X226983176Y-127122700D03*
X227383176Y-127122700D03*
X227783176Y-127122700D03*
X228183176Y-127122700D03*
X228583176Y-127122700D03*
X228983176Y-127122700D03*
X229383176Y-127122700D03*
X229783176Y-127122700D03*
X230183176Y-127122700D03*
X230583176Y-127122700D03*
X230983176Y-127122700D03*
X231383176Y-127122700D03*
D13*
X232220676Y-126285200D03*
X232220676Y-125885200D03*
X232220676Y-125485200D03*
X232220676Y-125085200D03*
X232220676Y-124685200D03*
X232220676Y-124285200D03*
X232220676Y-123885200D03*
X232220676Y-123485200D03*
X232220676Y-123085200D03*
X232220676Y-122685200D03*
X232220676Y-122285200D03*
X232220676Y-121885200D03*
X232220676Y-121485200D03*
X232220676Y-121085200D03*
D14*
X231383176Y-120247700D03*
X230983176Y-120247700D03*
X230583176Y-120247700D03*
X230183176Y-120247700D03*
X229783176Y-120247700D03*
X229383176Y-120247700D03*
X228983176Y-120247700D03*
X228583176Y-120247700D03*
X228183176Y-120247700D03*
X227783176Y-120247700D03*
X227383176Y-120247700D03*
X226983176Y-120247700D03*
X226583176Y-120247700D03*
X226183176Y-120247700D03*
D15*
X228783176Y-123685200D03*
%TD*%
D16*
%TO.C,ANT0*%
X207416400Y-128778000D03*
%TD*%
M02*
